<svg width="480" height="386" viewBox="0 0 480 386" fill="none" xmlns="http://www.w3.org/2000/svg">
<path d="M91.4485 319.268C49.9239 287.264 24 241.859 24 191.5C24 94.574 120.035 16 238.5 16C284.284 16 326.717 27.736 361.551 47.7316C323.153 18.1367 271.415 0 214.5 0C96.0349 0 0 78.574 0 175.5C0 234.967 36.1489 287.525 91.4485 319.268Z" fill="black"/>
<path d="M91.4485 319.268C49.9239 287.264 24 241.859 24 191.5C24 94.574 120.035 16 238.5 16C284.284 16 326.717 27.736 361.551 47.7316C323.153 18.1367 271.415 0 214.5 0C96.0349 0 0 78.574 0 175.5C0 234.967 36.1489 287.525 91.4485 319.268Z" fill="black"/>
<path d="M91.4485 319.268C49.9239 287.264 24 241.859 24 191.5C24 94.574 120.035 16 238.5 16C284.284 16 326.717 27.736 361.551 47.7316C323.153 18.1367 271.415 0 214.5 0C96.0349 0 0 78.574 0 175.5C0 234.967 36.1489 287.525 91.4485 319.268Z" fill="black"/>
<path d="M91.4485 319.268C49.9239 287.264 24 241.859 24 191.5C24 94.574 120.035 16 238.5 16C284.284 16 326.717 27.736 361.551 47.7316C323.153 18.1367 271.415 0 214.5 0C96.0349 0 0 78.574 0 175.5C0 234.967 36.1489 287.525 91.4485 319.268Z" fill="black"/>
<path d="M134.449 347.268C92.9239 315.264 67 269.859 67 219.5C67 122.574 163.035 44 281.5 44C327.284 44 369.717 55.736 404.551 75.7316C366.153 46.1367 314.415 28 257.5 28C139.035 28 43 106.574 43 203.5C43 262.967 79.1489 315.525 134.449 347.268Z" fill="black"/>
<path d="M134.449 347.268C92.9239 315.264 67 269.859 67 219.5C67 122.574 163.035 44 281.5 44C327.284 44 369.717 55.736 404.551 75.7316C366.153 46.1367 314.415 28 257.5 28C139.035 28 43 106.574 43 203.5C43 262.967 79.1489 315.525 134.449 347.268Z" fill="black"/>
<path d="M134.449 347.268C92.9239 315.264 67 269.859 67 219.5C67 122.574 163.035 44 281.5 44C327.284 44 369.717 55.736 404.551 75.7316C366.153 46.1367 314.415 28 257.5 28C139.035 28 43 106.574 43 203.5C43 262.967 79.1489 315.525 134.449 347.268Z" fill="black"/>
<path d="M134.449 347.268C92.9239 315.264 67 269.859 67 219.5C67 122.574 163.035 44 281.5 44C327.284 44 369.717 55.736 404.551 75.7316C366.153 46.1367 314.415 28 257.5 28C139.035 28 43 106.574 43 203.5C43 262.967 79.1489 315.525 134.449 347.268Z" fill="black"/>
<path d="M182.18 359C145.772 328.726 123.043 285.777 123.043 238.142C123.043 146.459 207.244 72.1346 311.111 72.1346C351.253 72.1346 388.458 83.2358 419 102.15C385.333 74.1557 339.971 57 290.069 57C186.201 57 102 131.324 102 223.008C102 279.258 133.695 328.974 182.18 359Z" fill="black"/>
<path d="M182.18 359C145.772 328.726 123.043 285.777 123.043 238.142C123.043 146.459 207.244 72.1346 311.111 72.1346C351.253 72.1346 388.458 83.2358 419 102.15C385.333 74.1557 339.971 57 290.069 57C186.201 57 102 131.324 102 223.008C102 279.258 133.695 328.974 182.18 359Z" fill="black"/>
<path d="M182.18 359C145.772 328.726 123.043 285.777 123.043 238.142C123.043 146.459 207.244 72.1346 311.111 72.1346C351.253 72.1346 388.458 83.2358 419 102.15C385.333 74.1557 339.971 57 290.069 57C186.201 57 102 131.324 102 223.008C102 279.258 133.695 328.974 182.18 359Z" fill="black"/>
<path d="M182.18 359C145.772 328.726 123.043 285.777 123.043 238.142C123.043 146.459 207.244 72.1346 311.111 72.1346C351.253 72.1346 388.458 83.2358 419 102.15C385.333 74.1557 339.971 57 290.069 57C186.201 57 102 131.324 102 223.008C102 279.258 133.695 328.974 182.18 359Z" fill="black"/>
<path d="M182.18 359C145.772 328.726 123.043 285.777 123.043 238.142C123.043 146.459 207.244 72.1346 311.111 72.1346C351.253 72.1346 388.458 83.2358 419 102.15C385.333 74.1557 339.971 57 290.069 57C186.201 57 102 131.324 102 223.008C102 279.258 133.695 328.974 182.18 359Z" fill="black"/>
<path d="M182.18 359C145.772 328.726 123.043 285.777 123.043 238.142C123.043 146.459 207.244 72.1346 311.111 72.1346C351.253 72.1346 388.458 83.2358 419 102.15C385.333 74.1557 339.971 57 290.069 57C186.201 57 102 131.324 102 223.008C102 279.258 133.695 328.974 182.18 359Z" fill="black"/>
<path d="M182.18 359C145.772 328.726 123.043 285.777 123.043 238.142C123.043 146.459 207.244 72.1346 311.111 72.1346C351.253 72.1346 388.458 83.2358 419 102.15C385.333 74.1557 339.971 57 290.069 57C186.201 57 102 131.324 102 223.008C102 279.258 133.695 328.974 182.18 359Z" fill="black"/>
<path d="M182.18 359C145.772 328.726 123.043 285.777 123.043 238.142C123.043 146.459 207.244 72.1346 311.111 72.1346C351.253 72.1346 388.458 83.2358 419 102.15C385.333 74.1557 339.971 57 290.069 57C186.201 57 102 131.324 102 223.008C102 279.258 133.695 328.974 182.18 359Z" fill="black"/>
<path d="M222.868 366C188.872 338.734 167.649 300.051 167.649 257.148C167.649 174.572 246.272 107.631 343.259 107.631C380.741 107.631 415.481 117.63 444 134.665C412.564 109.452 370.206 94 323.61 94C226.623 94 148 160.941 148 243.517C148 294.179 177.595 338.957 222.868 366Z" fill="black"/>
<path d="M222.868 366C188.872 338.734 167.649 300.051 167.649 257.148C167.649 174.572 246.272 107.631 343.259 107.631C380.741 107.631 415.481 117.63 444 134.665C412.564 109.452 370.206 94 323.61 94C226.623 94 148 160.941 148 243.517C148 294.179 177.595 338.957 222.868 366Z" fill="black"/>
<path d="M222.868 366C188.872 338.734 167.649 300.051 167.649 257.148C167.649 174.572 246.272 107.631 343.259 107.631C380.741 107.631 415.481 117.63 444 134.665C412.564 109.452 370.206 94 323.61 94C226.623 94 148 160.941 148 243.517C148 294.179 177.595 338.957 222.868 366Z" fill="black"/>
<path d="M222.868 366C188.872 338.734 167.649 300.051 167.649 257.148C167.649 174.572 246.272 107.631 343.259 107.631C380.741 107.631 415.481 117.63 444 134.665C412.564 109.452 370.206 94 323.61 94C226.623 94 148 160.941 148 243.517C148 294.179 177.595 338.957 222.868 366Z" fill="black"/>
<path d="M262.98 366C234.383 342.443 216.529 309.022 216.529 271.955C216.529 200.612 282.668 142.777 364.255 142.777C395.786 142.777 425.01 151.415 449 166.133C422.555 144.35 386.923 131 347.726 131C266.139 131 200 188.835 200 260.178C200 303.949 224.896 342.635 262.98 366Z" fill="black"/>
<path d="M262.98 366C234.383 342.443 216.529 309.022 216.529 271.955C216.529 200.612 282.668 142.777 364.255 142.777C395.786 142.777 425.01 151.415 449 166.133C422.555 144.35 386.923 131 347.726 131C266.139 131 200 188.835 200 260.178C200 303.949 224.896 342.635 262.98 366Z" fill="black"/>
<path d="M262.98 366C234.383 342.443 216.529 309.022 216.529 271.955C216.529 200.612 282.668 142.777 364.255 142.777C395.786 142.777 425.01 151.415 449 166.133C422.555 144.35 386.923 131 347.726 131C266.139 131 200 188.835 200 260.178C200 303.949 224.896 342.635 262.98 366Z" fill="black"/>
<path d="M262.98 366C234.383 342.443 216.529 309.022 216.529 271.955C216.529 200.612 282.668 142.777 364.255 142.777C395.786 142.777 425.01 151.415 449 166.133C422.555 144.35 386.923 131 347.726 131C266.139 131 200 188.835 200 260.178C200 303.949 224.896 342.635 262.98 366Z" fill="black"/>
<path d="M298.84 359C275.755 339.051 261.342 310.751 261.342 279.362C261.342 218.948 314.732 169.973 380.591 169.973C406.044 169.973 429.634 177.288 449 189.751C427.653 171.305 398.89 160 367.249 160C301.389 160 248 208.975 248 269.389C248 306.455 268.097 339.215 298.84 359Z" fill="black"/>
<path d="M298.84 359C275.755 339.051 261.342 310.751 261.342 279.362C261.342 218.948 314.732 169.973 380.591 169.973C406.044 169.973 429.634 177.288 449 189.751C427.653 171.305 398.89 160 367.249 160C301.389 160 248 208.975 248 269.389C248 306.455 268.097 339.215 298.84 359Z" fill="black"/>
<path d="M298.84 359C275.755 339.051 261.342 310.751 261.342 279.362C261.342 218.948 314.732 169.973 380.591 169.973C406.044 169.973 429.634 177.288 449 189.751C427.653 171.305 398.89 160 367.249 160C301.389 160 248 208.975 248 269.389C248 306.455 268.097 339.215 298.84 359Z" fill="black"/>
<path d="M298.84 359C275.755 339.051 261.342 310.751 261.342 279.362C261.342 218.948 314.732 169.973 380.591 169.973C406.044 169.973 429.634 177.288 449 189.751C427.653 171.305 398.89 160 367.249 160C301.389 160 248 208.975 248 269.389C248 306.455 268.097 339.215 298.84 359Z" fill="black"/>
<path d="M342.687 347C325.574 332.064 314.891 310.874 314.891 287.372C314.891 242.137 354.468 205.467 403.289 205.467C422.157 205.467 439.644 210.944 454 220.276C438.176 206.464 416.854 198 393.398 198C344.577 198 305 234.67 305 279.904C305 307.657 319.897 332.186 342.687 347Z" fill="black"/>
<path d="M342.687 347C325.574 332.064 314.891 310.874 314.891 287.372C314.891 242.137 354.468 205.467 403.289 205.467C422.157 205.467 439.644 210.944 454 220.276C438.176 206.464 416.854 198 393.398 198C344.577 198 305 234.67 305 279.904C305 307.657 319.897 332.186 342.687 347Z" fill="black"/>
<path d="M342.687 347C325.574 332.064 314.891 310.874 314.891 287.372C314.891 242.137 354.468 205.467 403.289 205.467C422.157 205.467 439.644 210.944 454 220.276C438.176 206.464 416.854 198 393.398 198C344.577 198 305 234.67 305 279.904C305 307.657 319.897 332.186 342.687 347Z" fill="black"/>
<path d="M342.687 347C325.574 332.064 314.891 310.874 314.891 287.372C314.891 242.137 354.468 205.467 403.289 205.467C422.157 205.467 439.644 210.944 454 220.276C438.176 206.464 416.854 198 393.398 198C344.577 198 305 234.67 305 279.904C305 307.657 319.897 332.186 342.687 347Z" fill="black"/>
<path d="M382.741 329C373.323 319.677 367.443 306.451 367.443 291.782C367.443 263.549 389.224 240.661 416.092 240.661C426.476 240.661 436.1 244.079 444 249.904C435.291 241.283 423.557 236 410.649 236C383.781 236 362 258.888 362 287.122C362 304.444 370.199 319.754 382.741 329Z" fill="black"/>
<path d="M382.741 329C373.323 319.677 367.443 306.451 367.443 291.782C367.443 263.549 389.224 240.661 416.092 240.661C426.476 240.661 436.1 244.079 444 249.904C435.291 241.283 423.557 236 410.649 236C383.781 236 362 258.888 362 287.122C362 304.444 370.199 319.754 382.741 329Z" fill="black"/>
<path d="M382.741 329C373.323 319.677 367.443 306.451 367.443 291.782C367.443 263.549 389.224 240.661 416.092 240.661C426.476 240.661 436.1 244.079 444 249.904C435.291 241.283 423.557 236 410.649 236C383.781 236 362 258.888 362 287.122C362 304.444 370.199 319.754 382.741 329Z" fill="black"/>
<path d="M382.741 329C373.323 319.677 367.443 306.451 367.443 291.782C367.443 263.549 389.224 240.661 416.092 240.661C426.476 240.661 436.1 244.079 444 249.904C435.291 241.283 423.557 236 410.649 236C383.781 236 362 258.888 362 287.122C362 304.444 370.199 319.754 382.741 329Z" fill="black"/>
<path d="M387.606 64.9774C428.775 97.4379 454.197 143.126 453.642 193.482C452.574 290.402 355.678 367.912 237.22 366.606C191.44 366.102 149.138 353.899 114.526 333.52C152.596 363.537 204.131 382.243 261.043 382.87C379.5 384.176 476.396 306.665 477.464 209.745C478.12 150.282 442.552 97.3281 387.606 64.9774Z" fill="black"/>
<path d="M387.606 64.9774C428.775 97.4379 454.197 143.126 453.642 193.482C452.574 290.402 355.678 367.912 237.22 366.606C191.44 366.102 149.138 353.899 114.526 333.52C152.596 363.537 204.131 382.243 261.043 382.87C379.5 384.176 476.396 306.665 477.464 209.745C478.12 150.282 442.552 97.3281 387.606 64.9774Z" fill="black"/>
<path d="M387.606 64.9774C428.775 97.4379 454.197 143.126 453.642 193.482C452.574 290.402 355.678 367.912 237.22 366.606C191.44 366.102 149.138 353.899 114.526 333.52C152.596 363.537 204.131 382.243 261.043 382.87C379.5 384.176 476.396 306.665 477.464 209.745C478.12 150.282 442.552 97.3281 387.606 64.9774Z" fill="black"/>
<path d="M387.606 64.9774C428.775 97.4379 454.197 143.126 453.642 193.482C452.574 290.402 355.678 367.912 237.22 366.606C191.44 366.102 149.138 353.899 114.526 333.52C152.596 363.537 204.131 382.243 261.043 382.87C379.5 384.176 476.396 306.665 477.464 209.745C478.12 150.282 442.552 97.3281 387.606 64.9774Z" fill="black"/>
</svg>
