<svg viewBox="0 0 1123 811" fill="none" xmlns="http://www.w3.org/2000/svg">
  <path d="M193.864 593.666C96.731 538.712 32 440.283 32 328 32 155.687 184.447 16 372.5 16c52.502 0 102.228 10.888 146.636 30.334C467.206 16.954 406.014 0 340.5 0 152.447 0 0 139.687 0 312c0 124.206 79.208 231.46 193.864 281.666Z" fill="#000"/>
  <path d="M193.864 593.666C96.731 538.712 32 440.283 32 328 32 155.687 184.447 16 372.5 16c52.502 0 102.228 10.888 146.636 30.334C467.206 16.954 406.014 0 340.5 0 152.447 0 0 139.687 0 312c0 124.206 79.208 231.46 193.864 281.666Z" fill="#000"/>
  <path d="M247.692 617.145C159.158 565.622 98.226 473.061 93.634 365.147 86.379 194.646 222.519 50.384 397.71 42.93c51.91-2.21 101.425 7.841 145.595 27.516-51.348-29.883-111.981-45.962-176.291-43.226C191.823 34.675 55.683 178.936 62.938 349.438c5.105 119.981 79.857 220.983 184.754 267.707Z" fill="#000"/>
  <path d="M247.692 617.145C159.158 565.622 98.226 473.061 93.634 365.147 86.379 194.646 222.519 50.384 397.71 42.93c51.91-2.21 101.425 7.841 145.595 27.516-51.348-29.883-111.981-45.962-176.291-43.226C191.823 34.675 55.683 178.936 62.938 349.438c5.105 119.981 79.857 220.983 184.754 267.707Z" fill="#000"/>
  <path d="M287.791 633.135C202.33 578.411 146 484.795 146 378.5 146 209.777 287.926 73 463 73c52.333 0 101.705 12.222 145.209 33.865C558.017 74.725 497.778 56 433 56c-175.074 0-317 136.777-317 305.5 0 118.288 69.758 220.874 171.791 271.635Z" fill="#000"/>
  <path d="M287.791 633.135C202.33 578.411 146 484.795 146 378.5 146 209.777 287.926 73 463 73c52.333 0 101.705 12.222 145.209 33.865C558.017 74.725 497.778 56 433 56c-175.074 0-317 136.777-317 305.5 0 118.288 69.758 220.874 171.791 271.635Z" fill="#000"/>
  <path d="M319.684 623.802C242.313 572.006 192 487.922 192 393c0-157.401 138.344-285 309-285 57.865 0 112.015 14.67 158.316 40.198C608.39 114.105 545.74 94 478 94c-170.656 0-309 127.599-309 285 0 104.031 60.432 195.043 150.684 244.802Z" fill="#000"/>
  <path d="M319.684 623.802C242.313 572.006 192 487.922 192 393c0-157.401 138.344-285 309-285 57.865 0 112.015 14.67 158.316 40.198C608.39 114.105 545.74 94 478 94c-170.656 0-309 127.599-309 285 0 104.031 60.432 195.043 150.684 244.802Z" fill="#000"/>
  <path d="M387.718 647.464c-86.037-48.085-143.373-134.212-143.373-232.461C244.345 264.228 379.377 142 545.948 142c46.504 0 90.55 9.527 129.885 26.542C629.835 142.834 575.633 128 517.603 128 351.032 128 216 250.228 216 401.003c0 108.682 70.159 202.53 171.718 246.461Z" fill="#000"/>
  <path d="M387.718 647.464c-86.037-48.085-143.373-134.212-143.373-232.461C244.345 264.228 379.377 142 545.948 142c46.504 0 90.55 9.527 129.885 26.542C629.835 142.834 575.633 128 517.603 128 351.032 128 216 250.228 216 401.003c0 108.682 70.159 202.53 171.718 246.461Z" fill="#000"/>
  <path d="M435.397 668.009c-78.42-45.084-132.392-126.076-136.459-220.501-6.426-149.191 114.162-275.422 269.341-281.944 45.981-1.933 89.839 6.861 128.963 24.077-45.482-26.148-99.189-40.217-156.152-37.823-155.179 6.523-275.768 132.753-269.341 281.944 4.522 104.984 70.734 193.363 163.648 234.247Z" fill="#000"/>
  <path d="M435.397 668.009c-78.42-45.084-132.392-126.076-136.459-220.501-6.426-149.191 114.162-275.422 269.341-281.944 45.981-1.933 89.839 6.861 128.963 24.077-45.482-26.148-99.189-40.217-156.152-37.823-155.179 6.523-275.768 132.753-269.341 281.944 4.522 104.984 70.734 193.363 163.648 234.247Z" fill="#000"/>
  <path d="M470.916 682c-75.699-47.884-125.594-129.799-125.594-222.809 0-147.634 125.713-267.315 280.788-267.315 46.355 0 90.087 10.694 128.621 29.632-44.458-28.123-97.816-44.507-155.194-44.507-155.075 0-280.788 119.681-280.788 267.315 0 103.504 61.789 193.268 152.167 237.684Z" fill="#000"/>
  <path d="M470.916 682c-75.699-47.884-125.594-129.799-125.594-222.809 0-147.634 125.713-267.315 280.788-267.315 46.355 0 90.087 10.694 128.621 29.632-44.458-28.123-97.816-44.507-155.194-44.507-155.075 0-280.788 119.681-280.788 267.315 0 103.504 61.789 193.268 152.167 237.684Z" fill="#000"/>
  <path d="M499.165 673.833c-68.532-45.322-113.098-118.896-113.098-201.954 0-137.728 122.541-249.378 273.702-249.378 51.255 0 99.219 12.837 140.231 35.174-45.109-29.832-100.602-47.424-160.604-47.424-151.161 0-273.702 111.65-273.702 249.378 0 91.028 53.529 170.665 133.471 214.204Z" fill="#000"/>
  <path d="M499.165 673.833c-68.532-45.322-113.098-118.896-113.098-201.954 0-137.728 122.541-249.378 273.702-249.378 51.255 0 99.219 12.837 140.231 35.174-45.109-29.832-100.602-47.424-160.604-47.424-151.161 0-273.702 111.65-273.702 249.378 0 91.028 53.529 170.665 133.471 214.204Z" fill="#000"/>
  <path d="M554.311 695.641c-76.313-42.27-127.17-117.981-127.17-204.347 0-132.541 119.772-239.987 267.518-239.987 41.249 0 80.317 8.375 115.207 23.332C769.066 252.04 720.99 239 669.518 239 521.772 239 402 346.446 402 478.987c0 95.537 62.23 178.036 152.311 216.654Z" fill="#000"/>
  <path d="M554.311 695.641c-76.313-42.27-127.17-117.981-127.17-204.347 0-132.541 119.772-239.987 267.518-239.987 41.249 0 80.317 8.375 115.207 23.332C769.066 252.04 720.99 239 669.518 239 521.772 239 402 346.446 402 478.987c0 95.537 62.23 178.036 152.311 216.654Z" fill="#000"/>
  <path d="M596.602 713.701c-69.557-39.632-117.43-110.828-121.037-193.834-5.7-131.148 101.26-242.112 238.901-247.846 40.785-1.699 79.687 6.032 114.389 21.165-40.342-22.986-87.979-35.353-138.505-33.249-137.642 5.734-244.602 116.699-238.902 247.847 4.011 92.287 62.74 169.977 145.154 205.917Z" fill="#000"/>
  <path d="M596.602 713.701c-69.557-39.632-117.43-110.828-121.037-193.834-5.7-131.148 101.26-242.112 238.901-247.846 40.785-1.699 79.687 6.032 114.389 21.165-40.342-22.986-87.979-35.353-138.505-33.249-137.642 5.734-244.602 116.699-238.902 247.847 4.011 92.287 62.74 169.977 145.154 205.917Z" fill="#000"/>
  <path d="M628.107 726c-67.144-42.093-111.4-114.101-111.4-195.862 0-129.78 111.505-234.987 249.055-234.987 41.116 0 79.906 9.4 114.085 26.048-39.434-24.721-86.762-39.124-137.655-39.124-137.549 0-249.055 105.207-249.055 234.986 0 90.986 54.806 169.894 134.97 208.939Z" fill="#000"/>
  <path d="M628.107 726c-67.144-42.093-111.4-114.101-111.4-195.862 0-129.78 111.505-234.987 249.055-234.987 41.116 0 79.906 9.4 114.085 26.048-39.434-24.721-86.762-39.124-137.655-39.124-137.549 0-249.055 105.207-249.055 234.986 0 90.986 54.806 169.894 134.97 208.939Z" fill="#000"/>
  <path d="M653.164 718.821c-60.788-39.841-100.317-104.517-100.317-177.53 0-121.071 108.692-219.219 242.77-219.219 45.462 0 88.006 11.284 124.383 30.92-40.011-26.224-89.232-41.688-142.453-41.688-134.078 0-242.77 98.147-242.77 219.218 0 80.019 47.479 150.025 118.387 188.299Z" fill="#000"/>
  <path d="M653.164 718.821c-60.788-39.841-100.317-104.517-100.317-177.53 0-121.071 108.692-219.219 242.77-219.219 45.462 0 88.006 11.284 124.383 30.92-40.011-26.224-89.232-41.688-142.453-41.688-134.078 0-242.77 98.147-242.77 219.218 0 80.019 47.479 150.025 118.387 188.299Z" fill="#000"/>
  <path d="M700.141 745.82c-65.707-37.843-109.494-105.625-109.494-182.947 0-118.661 103.124-214.855 230.334-214.855 35.515 0 69.153 7.498 99.193 20.889C885.045 348.675 843.651 337 799.334 337 672.124 337 569 433.194 569 551.855c0 85.532 53.581 159.391 131.141 193.965Z" fill="#000"/>
  <path d="M700.141 745.82c-65.707-37.843-109.494-105.625-109.494-182.947 0-118.661 103.124-214.855 230.334-214.855 35.515 0 69.153 7.498 99.193 20.889C885.045 348.675 843.651 337 799.334 337 672.124 337 569 433.194 569 551.855c0 85.532 53.581 159.391 131.141 193.965Z" fill="#000"/>
  <path d="M736.553 761.989c-59.889-35.481-101.108-99.222-104.214-173.535-4.907-117.414 87.186-216.758 205.696-221.891 35.115-1.521 68.61 5.4 98.489 18.948-34.735-20.578-75.75-31.651-119.253-29.766-118.511 5.133-210.604 104.477-205.696 221.891 3.453 82.623 54.02 152.177 124.978 184.353Z" fill="#000"/>
  <path d="M736.553 761.989c-59.889-35.481-101.108-99.222-104.214-173.535-4.907-117.414 87.186-216.758 205.696-221.891 35.115-1.521 68.61 5.4 98.489 18.948-34.735-20.578-75.75-31.651-119.253-29.766-118.511 5.133-210.604 104.477-205.696 221.891 3.453 82.623 54.02 152.177 124.978 184.353Z" fill="#000"/>
  <path d="M763.679 773c-57.811-37.685-95.916-102.152-95.916-175.351 0-116.189 96.007-210.379 214.437-210.379 35.402 0 68.799 8.417 98.228 23.321-33.952-22.133-74.702-35.027-118.522-35.027-118.43 0-214.437 94.189-214.437 210.378 0 81.457 47.189 152.102 116.21 187.058Z" fill="#000"/>
  <path d="M763.679 773c-57.811-37.685-95.916-102.152-95.916-175.351 0-116.189 96.007-210.379 214.437-210.379 35.402 0 68.799 8.417 98.228 23.321-33.952-22.133-74.702-35.027-118.522-35.027-118.43 0-214.437 94.189-214.437 210.378 0 81.457 47.189 152.102 116.21 187.058Z" fill="#000"/>
  <path d="M785.253 766.573c-52.338-35.669-86.373-93.572-86.373-158.939 0-108.392 93.584-196.261 209.026-196.261 39.143 0 75.773 10.102 107.094 27.681-34.45-23.477-76.829-37.322-122.653-37.322-115.442 0-209.026 87.869-209.026 196.261 0 71.639 40.88 134.314 101.932 168.58Z" fill="#000"/>
  <path d="M785.253 766.573c-52.338-35.669-86.373-93.572-86.373-158.939 0-108.392 93.584-196.261 209.026-196.261 39.143 0 75.773 10.102 107.094 27.681-34.45-23.477-76.829-37.322-122.653-37.322-115.442 0-209.026 87.869-209.026 196.261 0 71.639 40.88 134.314 101.932 168.58Z" fill="#000"/>
  <path d="M835.673 786.937c-59.961-33.503-99.919-93.512-99.919-161.967 0-105.053 94.106-190.215 210.193-190.215 32.409 0 63.103 6.638 90.523 18.493C1004.41 435.336 966.635 425 926.193 425 810.107 425 716 510.162 716 615.215c0 75.724 48.895 141.113 119.673 171.722Z" fill="#000"/>
  <path d="M835.673 786.937c-59.961-33.503-99.919-93.512-99.919-161.967 0-105.053 94.106-190.215 210.193-190.215 32.409 0 63.103 6.638 90.523 18.493C1004.41 435.336 966.635 425 926.193 425 810.107 425 716 510.162 716 615.215c0 75.724 48.895 141.113 119.673 171.722Z" fill="#000"/>
  <path d="M868.902 801.251c-54.653-31.412-92.267-87.843-95.101-153.634-4.479-103.948 79.561-191.9 187.708-196.444 32.045-1.347 62.611 4.78 89.881 16.775-31.7-18.218-69.13-28.021-108.829-26.353-108.147 4.545-192.187 92.496-187.709 196.445 3.152 73.148 49.296 134.725 114.05 163.211Z" fill="#000"/>
  <path d="M868.902 801.251c-54.653-31.412-92.267-87.843-95.101-153.634-4.479-103.948 79.561-191.9 187.708-196.444 32.045-1.347 62.611 4.78 89.881 16.775-31.7-18.218-69.13-28.021-108.829-26.353-108.147 4.545-192.187 92.496-187.709 196.445 3.152 73.148 49.296 134.725 114.05 163.211Z" fill="#000"/>
  <path d="M893.655 811c-52.755-33.363-87.528-90.438-87.528-155.242 0-102.864 87.611-186.253 195.683-186.253 32.31 0 62.79 7.452 89.64 20.647-30.98-19.595-68.17-31.011-108.156-31.011-108.075 0-195.686 83.388-195.686 186.253 0 72.116 43.062 134.659 106.047 165.606Z" fill="#000"/>
  <path d="M893.655 811c-52.755-33.363-87.528-90.438-87.528-155.242 0-102.864 87.611-186.253 195.683-186.253 32.31 0 62.79 7.452 89.64 20.647-30.98-19.595-68.17-31.011-108.156-31.011-108.075 0-195.686 83.388-195.686 186.253 0 72.116 43.062 134.659 106.047 165.606Z" fill="#000"/>
  <path d="M913.343 805.31c-47.762-31.578-78.82-82.841-78.82-140.712 0-95.962 85.4-173.754 190.747-173.754 35.72 0 69.15 8.944 97.73 24.507-31.44-20.785-70.11-33.043-111.93-33.043-105.345 0-190.745 77.793-190.745 173.755 0 63.424 37.305 118.911 93.018 149.247Z" fill="#000"/>
  <path d="M913.343 805.31c-47.762-31.578-78.82-82.841-78.82-140.712 0-95.962 85.4-173.754 190.747-173.754 35.72 0 69.15 8.944 97.73 24.507-31.44-20.785-70.11-33.043-111.93-33.043-105.345 0-190.745 77.793-190.745 173.755 0 63.424 37.305 118.911 93.018 149.247Z" fill="#000"/>
</svg>
